<?xml version="1.0" encoding="UTF-8" standalone="no"?>
<!DOCTYPE svg PUBLIC "-//W3C//DTD SVG 1.1//EN"
 "http://www.w3.org/Graphics/SVG/1.1/DTD/svg11.dtd">
<!-- Generated by graphviz version 2.47.0 (20210316.0004)
 -->
<!-- Title: dependencies Pages: 1 -->
<svg width="619pt" height="211pt"
 viewBox="0.00 0.00 619.00 211.00" xmlns="http://www.w3.org/2000/svg" xmlns:xlink="http://www.w3.org/1999/xlink">
<g id="graph0" class="graph" transform="scale(1 1) rotate(0) translate(4 207)">
<title>dependencies</title>
<polygon fill="white" stroke="transparent" points="-4,4 -4,-207 615,-207 615,4 -4,4"/>
<text text-anchor="start" x="284.51" y="-42.4" font-family="Times-12" font-weight="bold" font-size="14.00">Legend</text>
<polygon fill="#ffffb3" stroke="transparent" points="71.5,-10 71.5,-30 91.5,-30 91.5,-10 71.5,-10"/>
<text text-anchor="start" x="95.13" y="-15.4" font-family="Times-12" font-size="14.00"> &#160;Declarations</text>
<polygon fill="#8dd3c7" stroke="transparent" points="184.5,-10 184.5,-30 204.5,-30 204.5,-10 184.5,-10"/>
<text text-anchor="start" x="208.23" y="-15.4" font-family="Times-12" font-size="14.00"> &#160;Module</text>
<polygon fill="#80b1d3" stroke="transparent" points="270.5,-10 270.5,-30 290.5,-30 290.5,-10 270.5,-10"/>
<text text-anchor="start" x="294.28" y="-15.4" font-family="Times-12" font-size="14.00"> &#160;Bootstrap</text>
<polygon fill="#fdb462" stroke="transparent" points="367.5,-10 367.5,-30 387.5,-30 387.5,-10 367.5,-10"/>
<text text-anchor="start" x="391.17" y="-15.4" font-family="Times-12" font-size="14.00"> &#160;Providers</text>
<polygon fill="#fb8072" stroke="transparent" points="463.5,-10 463.5,-30 483.5,-30 483.5,-10 463.5,-10"/>
<text text-anchor="start" x="487.23" y="-15.4" font-family="Times-12" font-size="14.00"> &#160;Exports</text>
<g id="clust1" class="cluster">
<title>cluster_AppModule</title>
<polygon fill="none" stroke="black" stroke-dasharray="1,5" points="8,-70 8,-195 603,-195 603,-70 8,-70"/>
</g>
<g id="clust6" class="cluster">
<title>cluster_AppModule_providers</title>
<polygon fill="none" stroke="black" points="465,-78 465,-130 595,-130 595,-78 465,-78"/>
</g>
<g id="clust3" class="cluster">
<title>cluster_AppModule_imports</title>
<polygon fill="none" stroke="black" points="16,-78 16,-130 457,-130 457,-78 16,-78"/>
</g>
<!-- AuthModule -->
<g id="node1" class="node">
<title>AuthModule</title>
<polygon fill="#8dd3c7" stroke="black" points="448.55,-122 445.55,-126 424.55,-126 421.55,-122 361.45,-122 361.45,-86 448.55,-86 448.55,-122"/>
<text text-anchor="middle" x="405" y="-99.8" font-family="Times,serif" font-size="14.00">AuthModule</text>
</g>
<!-- AppModule -->
<g id="node5" class="node">
<title>AppModule</title>
<polygon fill="#8dd3c7" stroke="black" points="335.66,-187 332.66,-191 311.66,-191 308.66,-187 252.34,-187 252.34,-151 335.66,-151 335.66,-187"/>
<text text-anchor="middle" x="294" y="-164.8" font-family="Times,serif" font-size="14.00">AppModule</text>
</g>
<!-- AuthModule&#45;&gt;AppModule -->
<g id="edge1" class="edge">
<title>AuthModule&#45;&gt;AppModule</title>
<path fill="none" stroke="black" d="M405,-122.02C405,-139.37 405,-163 405,-163 405,-163 345.96,-163 345.96,-163"/>
<polygon fill="black" stroke="black" points="345.96,-159.5 335.96,-163 345.96,-166.5 345.96,-159.5"/>
</g>
<!-- PrismaModule -->
<g id="node2" class="node">
<title>PrismaModule</title>
<polygon fill="#8dd3c7" stroke="black" points="343.43,-122 340.43,-126 319.43,-126 316.43,-122 244.57,-122 244.57,-86 343.43,-86 343.43,-122"/>
<text text-anchor="middle" x="294" y="-99.8" font-family="Times,serif" font-size="14.00">PrismaModule</text>
</g>
<!-- PrismaModule&#45;&gt;AppModule -->
<g id="edge2" class="edge">
<title>PrismaModule&#45;&gt;AppModule</title>
<path fill="none" stroke="black" d="M294,-122.11C294,-122.11 294,-140.99 294,-140.99"/>
<polygon fill="black" stroke="black" points="290.5,-140.99 294,-150.99 297.5,-140.99 290.5,-140.99"/>
</g>
<!-- SchoolModule -->
<g id="node3" class="node">
<title>SchoolModule</title>
<polygon fill="#8dd3c7" stroke="black" points="227.44,-122 224.44,-126 203.44,-126 200.44,-122 128.56,-122 128.56,-86 227.44,-86 227.44,-122"/>
<text text-anchor="middle" x="178" y="-99.8" font-family="Times,serif" font-size="14.00">SchoolModule</text>
</g>
<!-- SchoolModule&#45;&gt;AppModule -->
<g id="edge3" class="edge">
<title>SchoolModule&#45;&gt;AppModule</title>
<path fill="none" stroke="black" d="M178,-122.02C178,-139.37 178,-163 178,-163 178,-163 242.12,-163 242.12,-163"/>
<polygon fill="black" stroke="black" points="242.12,-166.5 252.12,-163 242.12,-159.5 242.12,-166.5"/>
</g>
<!-- TaskModule -->
<g id="node4" class="node">
<title>TaskModule</title>
<polygon fill="#8dd3c7" stroke="black" points="110.26,-122 107.26,-126 86.26,-126 83.26,-122 23.74,-122 23.74,-86 110.26,-86 110.26,-122"/>
<text text-anchor="middle" x="67" y="-99.8" font-family="Times,serif" font-size="14.00">TaskModule</text>
</g>
<!-- TaskModule&#45;&gt;AppModule -->
<g id="edge4" class="edge">
<title>TaskModule&#45;&gt;AppModule</title>
<path fill="none" stroke="black" d="M67,-122.28C67,-143.32 67,-175 67,-175 67,-175 242.1,-175 242.1,-175"/>
<polygon fill="black" stroke="black" points="242.1,-178.5 252.1,-175 242.1,-171.5 242.1,-178.5"/>
</g>
<!-- AppService -->
<g id="node6" class="node">
<title>AppService</title>
<ellipse fill="#fdb462" stroke="black" cx="530" cy="-104" rx="56.74" ry="18"/>
<text text-anchor="middle" x="530" y="-99.8" font-family="Times,serif" font-size="14.00">AppService</text>
</g>
<!-- AppService&#45;&gt;AppModule -->
<g id="edge5" class="edge">
<title>AppService&#45;&gt;AppModule</title>
<path fill="none" stroke="black" d="M530,-122.28C530,-143.32 530,-175 530,-175 530,-175 345.92,-175 345.92,-175"/>
<polygon fill="black" stroke="black" points="345.92,-171.5 335.92,-175 345.92,-178.5 345.92,-171.5"/>
</g>
</g>
</svg>
